<svg width="36" height="36" viewBox="0 0 36 36" fill="none" xmlns="http://www.w3.org/2000/svg">
<path d="M10.6562 20.6458C13.1942 20.6458 15.2282 22.6996 15.2282 25.2556V31.3919C15.2282 33.93 13.1942 36 10.6562 36H4.57207C2.05203 36 0 33.93 0 31.3919V25.2556C0 22.6996 2.05203 20.6458 4.57207 20.6458H10.6562ZM31.4286 20.6458C33.9487 20.6458 36.0007 22.6996 36.0007 25.2556V31.3919C36.0007 33.93 33.9487 36 31.4286 36H25.3446C22.8065 36 20.7725 33.93 20.7725 31.3919V25.2556C20.7725 22.6996 22.8065 20.6458 25.3446 20.6458H31.4286ZM10.6562 0C13.1942 0 15.2282 2.07003 15.2282 4.60987V10.7462C15.2282 13.3022 13.1942 15.3542 10.6562 15.3542H4.57207C2.05203 15.3542 0 13.3022 0 10.7462V4.60987C0 2.07003 2.05203 0 4.57207 0H10.6562ZM31.4286 0C33.9487 0 36.0007 2.07003 36.0007 4.60987V10.7462C36.0007 13.3022 33.9487 15.3542 31.4286 15.3542H25.3446C22.8065 15.3542 20.7725 13.3022 20.7725 10.7462V4.60987C20.7725 2.07003 22.8065 0 25.3446 0H31.4286Z" fill="url(#paint0_linear)"/>
<defs>
<linearGradient id="paint0_linear" x1="-0.100541" y1="18.2499" x2="35.9239" y2="18.2499" gradientUnits="userSpaceOnUse">
<stop stop-color="#1245C6"/>
<stop offset="1" stop-color="#9909B7"/>
</linearGradient>
</defs>
</svg>
