<svg width="36" height="36" viewBox="0 0 36 36" fill="none" xmlns="http://www.w3.org/2000/svg">
<path d="M10.6559 20.6458C13.1939 20.6458 15.2279 22.6996 15.2279 25.2556V31.3919C15.2279 33.93 13.1939 36 10.6559 36H4.57198C2.05199 36 0 33.93 0 31.3919V25.2556C0 22.6996 2.05199 20.6458 4.57198 20.6458H10.6559ZM31.428 20.6458C33.948 20.6458 36 22.6996 36 25.2556V31.3919C36 33.93 33.948 36 31.428 36H25.3441C22.8061 36 20.7721 33.93 20.7721 31.3919V25.2556C20.7721 22.6996 22.8061 20.6458 25.3441 20.6458H31.428ZM10.6559 0C13.1939 0 15.2279 2.07003 15.2279 4.60987V10.7462C15.2279 13.3022 13.1939 15.3542 10.6559 15.3542H4.57198C2.05199 15.3542 0 13.3022 0 10.7462V4.60987C0 2.07003 2.05199 0 4.57198 0H10.6559ZM31.428 0C33.948 0 36 2.07003 36 4.60987V10.7462C36 13.3022 33.948 15.3542 31.428 15.3542H25.3441C22.8061 15.3542 20.7721 13.3022 20.7721 10.7462V4.60987C20.7721 2.07003 22.8061 0 25.3441 0H31.428Z" fill="#200E32"/>
</svg>
