<svg width="53" height="53" viewBox="0 0 53 53" fill="none" xmlns="http://www.w3.org/2000/svg">
<path d="M9.18695 15.9H40.987C41.5721 15.9 42.047 15.4262 42.047 14.84C42.047 14.2538 41.5721 13.78 40.987 13.78H9.18695C8.60183 13.78 8.12695 14.2538 8.12695 14.84C8.12695 15.4262 8.60077 15.9 9.18695 15.9Z" fill="#231F20"/>
<path d="M9.18695 39.22H40.987C41.5721 39.22 42.047 38.7462 42.047 38.16C42.047 37.5738 41.5721 37.1 40.987 37.1H9.18695C8.60183 37.1 8.12695 37.5738 8.12695 38.16C8.12695 38.7462 8.60077 39.22 9.18695 39.22Z" fill="#231F20"/>
<path d="M9.18695 27.56H40.987C41.5721 27.56 42.047 27.0862 42.047 26.5C42.047 25.9138 41.5721 25.44 40.987 25.44H9.18695C8.60183 25.44 8.12695 25.9138 8.12695 26.5C8.12695 27.0862 8.60077 27.56 9.18695 27.56Z" fill="#231F20"/>
</svg>
