<svg width="51" height="40" viewBox="0 0 51 40" fill="none" xmlns="http://www.w3.org/2000/svg">
<path d="M25.3679 8.15789L7.13471 23.1579V38.1579C7.13471 38.6842 7.39896 39.2105 7.66321 39.4737C8.19171 40 8.45596 40 8.98446 40H21.4041V27.8947H29.3316V40H41.487C42.0155 40 42.544 39.7368 42.8083 39.4737C43.3368 38.9474 43.3368 38.6842 43.3368 38.1579V23.1579V22.8947L25.3679 8.15789ZM50.4715 19.7368L43.601 13.9474V1.05263C43.601 0.789474 43.601 0.526316 43.3368 0.263158C43.0725 -2.54888e-07 42.8083 0 42.544 0H36.4663C36.2021 0 35.9378 -2.54888e-07 35.6736 0.263158C35.4093 0.526316 35.4093 0.789474 35.4093 1.05263V7.10526L27.7461 0.789474C27.2176 0.263158 26.4249 0 25.3679 0C24.3109 0 23.5181 0.263158 22.9896 0.789474L0.264248 19.7368C-2.55945e-07 20 0 20 0 20.5263C0 20.7895 -2.55945e-07 21.0526 0.264248 21.3158L2.11399 23.6842C2.11399 23.6842 2.37824 23.6842 2.64249 23.9474C2.90674 23.9474 3.17098 23.9474 3.43523 23.6842L25.3679 5.52632L47.3005 23.6842C47.5648 23.9474 47.5648 23.9474 48.0933 23.9474C48.3575 23.9474 48.6218 23.6842 48.886 23.6842L50.7357 21.3158C51 21.0526 51 20.7895 51 20.5263C50.7357 20.2632 50.7357 20 50.4715 19.7368Z" fill="url(#paint0_linear)"/>
<defs>
<linearGradient id="paint0_linear" x1="-0.14243" y1="20.2776" x2="50.8911" y2="20.2776" gradientUnits="userSpaceOnUse">
<stop stop-color="#1245C6"/>
<stop offset="1" stop-color="#9909B7"/>
</linearGradient>
</defs>
</svg>
