<svg width="36" height="36" viewBox="0 0 36 36" fill="none" xmlns="http://www.w3.org/2000/svg">
<path d="M23.9433 18.6727C25.725 17.4119 27.0591 15.6172 27.7528 13.5483C28.4464 11.4794 28.4635 9.24358 27.8017 7.16429C27.1399 5.085 25.8335 3.27009 24.0714 1.98214C22.3094 0.694193 20.183 0 18.0001 0C15.8172 0 13.6909 0.694193 11.9288 1.98214C10.1668 3.27009 8.86032 5.085 8.19851 7.16429C7.53671 9.24358 7.55386 11.4794 8.2475 13.5483C8.94114 15.6172 10.2753 17.4119 12.0569 18.6727C8.58257 19.6847 5.52987 21.7949 3.35622 24.6871C1.18257 27.5792 0.00501301 31.0975 0 34.7148C0 35.0557 0.135459 35.3826 0.376577 35.6236C0.617695 35.8646 0.944722 36 1.28571 36H34.7143C35.0553 36 35.3823 35.8646 35.6234 35.6236C35.8645 35.3826 36 35.0557 36 34.7148C35.995 31.0975 34.8175 27.5792 32.6439 24.6871C30.4703 21.795 27.4176 19.6848 23.9433 18.6727ZM10.2857 10.2966C10.2857 8.77155 10.7381 7.28071 11.5858 6.01264C12.4335 4.74457 13.6383 3.75623 15.0479 3.1726C16.4575 2.58897 18.0086 2.43627 19.505 2.7338C21.0014 3.03133 22.376 3.76574 23.4548 4.84414C24.5337 5.92254 25.2684 7.29651 25.5661 8.7923C25.8637 10.2881 25.7109 11.8385 25.1271 13.2475C24.5432 14.6565 23.5544 15.8608 22.2858 16.7081C21.0172 17.5554 19.5257 18.0077 18 18.0077C15.9548 18.0053 13.994 17.1922 12.5478 15.7466C11.1015 14.301 10.288 12.341 10.2857 10.2966ZM2.62929 33.4297C2.95421 29.9189 4.57812 26.6557 7.18321 24.2788C9.78831 21.9018 13.1871 20.5821 16.7143 20.578H19.2857C22.8129 20.5821 26.2117 21.9018 28.8168 24.2788C31.4219 26.6557 33.0458 29.9189 33.3707 33.4297H2.62929Z" fill="black"/>
</svg>
